{"asset":{"version":"2.0","generator":"Asteria block player v1"},"scene":0,"scenes":[{"name":"Player","nodes":[0]}],"nodes":[{"name":"PlayerRoot","children":[1]},{"name":"Visual","children":[2,3,4,5,6,7]},{"name":"BodyPivot","children":[8],"translation":[0,0.675,0]},{"name":"HeadPivot","children":[9,10],"translation":[0,1.35,0]},{"name":"RightArmPivot","children":[11],"translation":[-0.3375,1.35,0]},{"name":"LeftArmPivot","children":[12],"translation":[0.3375,1.35,0]},{"name":"RightLegPivot","children":[13],"translation":[-0.1125,0.675,0]},{"name":"LeftLegPivot","children":[14],"translation":[0.1125,0.675,0]},{"name":"BodyMesh","mesh":1,"translation":[0,0.3375,0],"scale":[0.45,0.675,0.225]},{"name":"HeadMesh","mesh":0,"translation":[0,0.225,0],"scale":[0.45,0.45,0.45]},{"name":"HairLayer","mesh":2,"translation":[0,0.225,0],"scale":[0.478125,0.478125,0.478125]},{"name":"RightArmMesh","mesh":3,"translation":[0,-0.3375,0],"scale":[0.225,0.675,0.225]},{"name":"LeftArmMesh","mesh":4,"translation":[0,-0.3375,0],"scale":[0.225,0.675,0.225]},{"name":"RightLegMesh","mesh":5,"translation":[0,-0.3375,0],"scale":[0.225,0.675,0.225]},{"name":"LeftLegMesh","mesh":6,"translation":[0,-0.3375,0],"scale":[0.225,0.675,0.225]}],"meshes":[{"name":"HeadMesh","primitives":[{"attributes":{"POSITION":0,"NORMAL":1,"TEXCOORD_0":53},"indices":2,"material":0,"mode":4}]},{"name":"BodyMesh","primitives":[{"attributes":{"POSITION":0,"NORMAL":1,"TEXCOORD_0":54},"indices":2,"material":0,"mode":4}]},{"name":"HairLayer","primitives":[{"attributes":{"POSITION":0,"NORMAL":1,"TEXCOORD_0":55},"indices":2,"material":0,"mode":4}]},{"name":"RightArmMesh","primitives":[{"attributes":{"POSITION":0,"NORMAL":1,"TEXCOORD_0":56},"indices":2,"material":0,"mode":4}]},{"name":"LeftArmMesh","primitives":[{"attributes":{"POSITION":0,"NORMAL":1,"TEXCOORD_0":57},"indices":2,"material":0,"mode":4}]},{"name":"RightLegMesh","primitives":[{"attributes":{"POSITION":0,"NORMAL":1,"TEXCOORD_0":58},"indices":2,"material":0,"mode":4}]},{"name":"LeftLegMesh","primitives":[{"attributes":{"POSITION":0,"NORMAL":1,"TEXCOORD_0":59},"indices":2,"material":0,"mode":4}]}],"materials":[{"name":"PlayerSkin","pbrMetallicRoughness":{"baseColorFactor":[1,1,1,1],"metallicFactor":0,"roughnessFactor":1},"alphaMode":"MASK","alphaCutoff":0.1,"doubleSided":true}],"animations":[{"name":"Idle","channels":[{"sampler":0,"target":{"node":4,"path":"rotation"}},{"sampler":1,"target":{"node":5,"path":"rotation"}}],"samplers":[{"input":3,"output":4,"interpolation":"LINEAR"},{"input":5,"output":6,"interpolation":"LINEAR"}],"extras":{"loop_recommended":true}},{"name":"Walk","channels":[{"sampler":0,"target":{"node":6,"path":"rotation"}},{"sampler":1,"target":{"node":7,"path":"rotation"}},{"sampler":2,"target":{"node":4,"path":"rotation"}},{"sampler":3,"target":{"node":5,"path":"rotation"}}],"samplers":[{"input":7,"output":8,"interpolation":"LINEAR"},{"input":9,"output":10,"interpolation":"LINEAR"},{"input":11,"output":12,"interpolation":"LINEAR"},{"input":13,"output":14,"interpolation":"LINEAR"}],"extras":{"loop_recommended":true}},{"name":"Run","channels":[{"sampler":0,"target":{"node":6,"path":"rotation"}},{"sampler":1,"target":{"node":7,"path":"rotation"}},{"sampler":2,"target":{"node":4,"path":"rotation"}},{"sampler":3,"target":{"node":5,"path":"rotation"}}],"samplers":[{"input":15,"output":16,"interpolation":"LINEAR"},{"input":17,"output":18,"interpolation":"LINEAR"},{"input":19,"output":20,"interpolation":"LINEAR"},{"input":21,"output":22,"interpolation":"LINEAR"}],"extras":{"loop_recommended":true}},{"name":"Jump","channels":[{"sampler":0,"target":{"node":6,"path":"rotation"}},{"sampler":1,"target":{"node":7,"path":"rotation"}},{"sampler":2,"target":{"node":4,"path":"rotation"}},{"sampler":3,"target":{"node":5,"path":"rotation"}}],"samplers":[{"input":23,"output":24,"interpolation":"LINEAR"},{"input":25,"output":26,"interpolation":"LINEAR"},{"input":27,"output":28,"interpolation":"LINEAR"},{"input":29,"output":30,"interpolation":"LINEAR"}],"extras":{"loop_recommended":false}},{"name":"Fall","channels":[{"sampler":0,"target":{"node":4,"path":"rotation"}},{"sampler":1,"target":{"node":5,"path":"rotation"}}],"samplers":[{"input":31,"output":32,"interpolation":"LINEAR"},{"input":33,"output":34,"interpolation":"LINEAR"}],"extras":{"loop_recommended":true}},{"name":"Hit","channels":[{"sampler":0,"target":{"node":2,"path":"rotation"}},{"sampler":1,"target":{"node":4,"path":"rotation"}}],"samplers":[{"input":35,"output":36,"interpolation":"LINEAR"},{"input":37,"output":38,"interpolation":"LINEAR"}],"extras":{"loop_recommended":false}},{"name":"Place","channels":[{"sampler":0,"target":{"node":4,"path":"rotation"}}],"samplers":[{"input":39,"output":40,"interpolation":"LINEAR"}],"extras":{"loop_recommended":false}},{"name":"Break","channels":[{"sampler":0,"target":{"node":4,"path":"rotation"}}],"samplers":[{"input":41,"output":42,"interpolation":"LINEAR"}],"extras":{"loop_recommended":true}},{"name":"Hurt","channels":[{"sampler":0,"target":{"node":1,"path":"rotation"}},{"sampler":1,"target":{"node":4,"path":"rotation"}},{"sampler":2,"target":{"node":5,"path":"rotation"}}],"samplers":[{"input":43,"output":44,"interpolation":"LINEAR"},{"input":45,"output":46,"interpolation":"LINEAR"},{"input":47,"output":48,"interpolation":"LINEAR"}],"extras":{"loop_recommended":false}},{"name":"Death","channels":[{"sampler":0,"target":{"node":1,"path":"rotation"}},{"sampler":1,"target":{"node":1,"path":"translation"}}],"samplers":[{"input":49,"output":50,"interpolation":"LINEAR"},{"input":51,"output":52,"interpolation":"LINEAR"}],"extras":{"loop_recommended":false}}],"bufferViews":[{"buffer":0,"byteOffset":0,"byteLength":288,"target":34962},{"buffer":0,"byteOffset":288,"byteLength":288,"target":34962},{"buffer":0,"byteOffset":576,"byteLength":72,"target":34963},{"buffer":0,"byteOffset":648,"byteLength":20},{"buffer":0,"byteOffset":668,"byteLength":80},{"buffer":0,"byteOffset":748,"byteLength":20},{"buffer":0,"byteOffset":768,"byteLength":80},{"buffer":0,"byteOffset":848,"byteLength":20},{"buffer":0,"byteOffset":868,"byteLength":80},{"buffer":0,"byteOffset":948,"byteLength":20},{"buffer":0,"byteOffset":968,"byteLength":80},{"buffer":0,"byteOffset":1048,"byteLength":20},{"buffer":0,"byteOffset":1068,"byteLength":80},{"buffer":0,"byteOffset":1148,"byteLength":20},{"buffer":0,"byteOffset":1168,"byteLength":80},{"buffer":0,"byteOffset":1248,"byteLength":20},{"buffer":0,"byteOffset":1268,"byteLength":80},{"buffer":0,"byteOffset":1348,"byteLength":20},{"buffer":0,"byteOffset":1368,"byteLength":80},{"buffer":0,"byteOffset":1448,"byteLength":20},{"buffer":0,"byteOffset":1468,"byteLength":80},{"buffer":0,"byteOffset":1548,"byteLength":20},{"buffer":0,"byteOffset":1568,"byteLength":80},{"buffer":0,"byteOffset":1648,"byteLength":12},{"buffer":0,"byteOffset":1660,"byteLength":48},{"buffer":0,"byteOffset":1708,"byteLength":12},{"buffer":0,"byteOffset":1720,"byteLength":48},{"buffer":0,"byteOffset":1768,"byteLength":12},{"buffer":0,"byteOffset":1780,"byteLength":48},{"buffer":0,"byteOffset":1828,"byteLength":12},{"buffer":0,"byteOffset":1840,"byteLength":48},{"buffer":0,"byteOffset":1888,"byteLength":12},{"buffer":0,"byteOffset":1900,"byteLength":48},{"buffer":0,"byteOffset":1948,"byteLength":12},{"buffer":0,"byteOffset":1960,"byteLength":48},{"buffer":0,"byteOffset":2008,"byteLength":16},{"buffer":0,"byteOffset":2024,"byteLength":64},{"buffer":0,"byteOffset":2088,"byteLength":16},{"buffer":0,"byteOffset":2104,"byteLength":64},{"buffer":0,"byteOffset":2168,"byteLength":16},{"buffer":0,"byteOffset":2184,"byteLength":64},{"buffer":0,"byteOffset":2248,"byteLength":20},{"buffer":0,"byteOffset":2268,"byteLength":80},{"buffer":0,"byteOffset":2348,"byteLength":16},{"buffer":0,"byteOffset":2364,"byteLength":64},{"buffer":0,"byteOffset":2428,"byteLength":12},{"buffer":0,"byteOffset":2440,"byteLength":48},{"buffer":0,"byteOffset":2488,"byteLength":12},{"buffer":0,"byteOffset":2500,"byteLength":48},{"buffer":0,"byteOffset":2548,"byteLength":16},{"buffer":0,"byteOffset":2564,"byteLength":64},{"buffer":0,"byteOffset":2628,"byteLength":12},{"buffer":0,"byteOffset":2640,"byteLength":36},{"buffer":0,"byteOffset":2676,"byteLength":192,"target":34962},{"buffer":0,"byteOffset":2868,"byteLength":192,"target":34962},{"buffer":0,"byteOffset":3060,"byteLength":192,"target":34962},{"buffer":0,"byteOffset":3252,"byteLength":192,"target":34962},{"buffer":0,"byteOffset":3444,"byteLength":192,"target":34962},{"buffer":0,"byteOffset":3636,"byteLength":192,"target":34962},{"buffer":0,"byteOffset":3828,"byteLength":192,"target":34962}],"accessors":[{"bufferView":0,"componentType":5126,"count":24,"type":"VEC3","min":[-0.5,-0.5,-0.5],"max":[0.5,0.5,0.5]},{"bufferView":1,"componentType":5126,"count":24,"type":"VEC3"},{"bufferView":2,"componentType":5123,"count":36,"type":"SCALAR"},{"bufferView":3,"componentType":5126,"count":5,"type":"SCALAR","min":[0],"max":[2]},{"bufferView":4,"componentType":5126,"count":5,"type":"VEC4"},{"bufferView":5,"componentType":5126,"count":5,"type":"SCALAR","min":[0],"max":[2]},{"bufferView":6,"componentType":5126,"count":5,"type":"VEC4"},{"bufferView":7,"componentType":5126,"count":5,"type":"SCALAR","min":[0],"max":[1]},{"bufferView":8,"componentType":5126,"count":5,"type":"VEC4"},{"bufferView":9,"componentType":5126,"count":5,"type":"SCALAR","min":[0],"max":[1]},{"bufferView":10,"componentType":5126,"count":5,"type":"VEC4"},{"bufferView":11,"componentType":5126,"count":5,"type":"SCALAR","min":[0],"max":[1]},{"bufferView":12,"componentType":5126,"count":5,"type":"VEC4"},{"bufferView":13,"componentType":5126,"count":5,"type":"SCALAR","min":[0],"max":[1]},{"bufferView":14,"componentType":5126,"count":5,"type":"VEC4"},{"bufferView":15,"componentType":5126,"count":5,"type":"SCALAR","min":[0],"max":[0.7]},{"bufferView":16,"componentType":5126,"count":5,"type":"VEC4"},{"bufferView":17,"componentType":5126,"count":5,"type":"SCALAR","min":[0],"max":[0.7]},{"bufferView":18,"componentType":5126,"count":5,"type":"VEC4"},{"bufferView":19,"componentType":5126,"count":5,"type":"SCALAR","min":[0],"max":[0.7]},{"bufferView":20,"componentType":5126,"count":5,"type":"VEC4"},{"bufferView":21,"componentType":5126,"count":5,"type":"SCALAR","min":[0],"max":[0.7]},{"bufferView":22,"componentType":5126,"count":5,"type":"VEC4"},{"bufferView":23,"componentType":5126,"count":3,"type":"SCALAR","min":[0],"max":[0.42]},{"bufferView":24,"componentType":5126,"count":3,"type":"VEC4"},{"bufferView":25,"componentType":5126,"count":3,"type":"SCALAR","min":[0],"max":[0.42]},{"bufferView":26,"componentType":5126,"count":3,"type":"VEC4"},{"bufferView":27,"componentType":5126,"count":3,"type":"SCALAR","min":[0],"max":[0.42]},{"bufferView":28,"componentType":5126,"count":3,"type":"VEC4"},{"bufferView":29,"componentType":5126,"count":3,"type":"SCALAR","min":[0],"max":[0.42]},{"bufferView":30,"componentType":5126,"count":3,"type":"VEC4"},{"bufferView":31,"componentType":5126,"count":3,"type":"SCALAR","min":[0],"max":[1]},{"bufferView":32,"componentType":5126,"count":3,"type":"VEC4"},{"bufferView":33,"componentType":5126,"count":3,"type":"SCALAR","min":[0],"max":[1]},{"bufferView":34,"componentType":5126,"count":3,"type":"VEC4"},{"bufferView":35,"componentType":5126,"count":4,"type":"SCALAR","min":[0],"max":[0.42]},{"bufferView":36,"componentType":5126,"count":4,"type":"VEC4"},{"bufferView":37,"componentType":5126,"count":4,"type":"SCALAR","min":[0],"max":[0.42]},{"bufferView":38,"componentType":5126,"count":4,"type":"VEC4"},{"bufferView":39,"componentType":5126,"count":4,"type":"SCALAR","min":[0],"max":[0.48]},{"bufferView":40,"componentType":5126,"count":4,"type":"VEC4"},{"bufferView":41,"componentType":5126,"count":5,"type":"SCALAR","min":[0],"max":[0.56]},{"bufferView":42,"componentType":5126,"count":5,"type":"VEC4"},{"bufferView":43,"componentType":5126,"count":4,"type":"SCALAR","min":[0],"max":[0.38]},{"bufferView":44,"componentType":5126,"count":4,"type":"VEC4"},{"bufferView":45,"componentType":5126,"count":3,"type":"SCALAR","min":[0],"max":[0.38]},{"bufferView":46,"componentType":5126,"count":3,"type":"VEC4"},{"bufferView":47,"componentType":5126,"count":3,"type":"SCALAR","min":[0],"max":[0.38]},{"bufferView":48,"componentType":5126,"count":3,"type":"VEC4"},{"bufferView":49,"componentType":5126,"count":4,"type":"SCALAR","min":[0],"max":[0.9]},{"bufferView":50,"componentType":5126,"count":4,"type":"VEC4"},{"bufferView":51,"componentType":5126,"count":3,"type":"SCALAR","min":[0],"max":[0.9]},{"bufferView":52,"componentType":5126,"count":3,"type":"VEC3"},{"bufferView":53,"componentType":5126,"count":24,"type":"VEC2","min":[0,0],"max":[0.5,0.25]},{"bufferView":54,"componentType":5126,"count":24,"type":"VEC2","min":[0.25,0.25],"max":[0.625,0.5]},{"bufferView":55,"componentType":5126,"count":24,"type":"VEC2","min":[0.5,0],"max":[1,0.25]},{"bufferView":56,"componentType":5126,"count":24,"type":"VEC2","min":[0.625,0.25],"max":[0.875,0.5]},{"bufferView":57,"componentType":5126,"count":24,"type":"VEC2","min":[0.5,0.75],"max":[0.75,1]},{"bufferView":58,"componentType":5126,"count":24,"type":"VEC2","min":[0,0.25],"max":[0.25,0.5]},{"bufferView":59,"componentType":5126,"count":24,"type":"VEC2","min":[0.25,0.75],"max":[0.5,1]}],"buffers":[{"byteLength":4020,"uri":"data:application/octet-stream;base64,"}],"extras":{"asset_id":"asteria:player","model_style":"modern_classic","height_meters":1.8,"animation_clips":["Idle","Walk","Run","Jump","Fall","Hit","Place","Break","Hurt","Death"],"animation_revision":2,"skin_texture":"textures/entities/player.png","skin_layout":"minecraft_modern_64x64","skin_binding":"runtime"}}